<?xml version="1.0" encoding="UTF-8"?>
<svg xmlns="http://www.w3.org/2000/svg" xmlns:xlink="http://www.w3.org/1999/xlink" width="24px" height="24px" viewBox="0 0 24 24" version="1.1">
<g id="surface1">
<path fill="currentColor" d="M 18.738281 9.515625 C 18.703125 8.714844 18.585938 7.898438 18.234375 7.167969 C 18.039062 6.761719 17.777344 6.394531 17.460938 6.078125 C 17.160156 5.785156 16.824219 5.527344 16.460938 5.316406 C 15.660156 4.835938 14.703125 4.519531 12.503906 3.863281 C 10.304688 3.207031 9 3 9 3 L 9 19.796875 L 12.746094 21 C 12.746094 21 12.75 11.679688 12.75 6.960938 L 12.75 6.78125 C 12.75 6.347656 13.101562 5.996094 13.503906 5.996094 L 13.527344 5.996094 C 13.925781 5.996094 14.253906 6.347656 14.253906 6.78125 L 14.253906 13.03125 C 14.769531 13.28125 15.625 13.46875 16.214844 13.457031 C 16.605469 13.46875 16.992188 13.375 17.339844 13.191406 C 17.695312 12.992188 17.992188 12.707031 18.203125 12.355469 C 18.433594 11.960938 18.589844 11.527344 18.664062 11.078125 C 18.753906 10.570312 18.757812 10.039062 18.738281 9.515625 Z M 18.738281 9.515625 "/>
<path fill="currentColor" d="M 4.0625 16.773438 C 5.347656 16.3125 8.25 15.390625 8.25 15.390625 L 8.25 13.175781 C 8.25 13.175781 4.664062 14.339844 3.03125 14.914062 C 2.628906 15.0625 2.21875 15.191406 1.828125 15.359375 C 1.367188 15.554688 0.917969 15.769531 0.507812 16.054688 C 0.328125 16.171875 0.179688 16.335938 0.078125 16.527344 C -0.015625 16.730469 -0.0234375 16.957031 0.0546875 17.164062 C 0.148438 17.40625 0.328125 17.601562 0.527344 17.757812 C 0.894531 18.03125 1.328125 18.203125 1.765625 18.328125 C 3.101562 18.769531 4.503906 18.980469 5.910156 18.953125 C 6.589844 18.941406 7.597656 18.863281 8.253906 18.746094 L 8.253906 16.777344 C 8.253906 16.777344 7.738281 16.894531 6.316406 17.363281 C 6.101562 17.433594 5.886719 17.515625 5.660156 17.5625 C 5.328125 17.632812 4.988281 17.667969 4.648438 17.667969 C 4.34375 17.652344 4.03125 17.632812 3.742188 17.523438 C 3.640625 17.476562 3.527344 17.417969 3.484375 17.304688 C 3.449219 17.210938 3.5 17.117188 3.566406 17.054688 C 3.695312 16.917969 3.882812 16.84375 4.0625 16.773438 Z M 4.0625 16.773438 "/>
<path fill="currentColor" d="M 24 16.214844 C 23.996094 15.933594 23.828125 15.6875 23.628906 15.511719 C 23.296875 15.214844 22.882812 15.027344 22.472656 14.878906 C 22.214844 14.789062 22.035156 14.722656 21.78125 14.644531 C 20.601562 14.257812 19.351562 14.117188 18.113281 14.113281 C 17.738281 14.128906 17.03125 14.136719 16.660156 14.179688 C 15.632812 14.296875 13.503906 14.902344 13.503906 14.902344 L 13.503906 17.1875 C 13.503906 17.1875 16.667969 16.175781 18.027344 15.699219 C 18.488281 15.550781 18.964844 15.476562 19.449219 15.484375 C 19.753906 15.492188 20.066406 15.515625 20.359375 15.628906 C 20.460938 15.671875 20.570312 15.730469 20.617188 15.839844 C 20.65625 15.960938 20.574219 16.074219 20.480469 16.144531 C 20.257812 16.320312 19.976562 16.390625 19.71875 16.492188 C 17.796875 17.171875 13.5 18.585938 13.5 18.585938 L 13.5 20.789062 C 13.5 20.789062 18.992188 18.933594 21.507812 18.03125 C 21.921875 17.878906 22.34375 17.746094 22.742188 17.546875 C 23.113281 17.359375 23.484375 17.140625 23.765625 16.828125 C 23.917969 16.660156 24 16.441406 24 16.214844 Z M 24 16.214844 "/>
</g>
</svg>
