<?xml version="1.0" encoding="UTF-8"?>
<svg xmlns="http://www.w3.org/2000/svg"
  xmlns:xlink="http://www.w3.org/1999/xlink" width="24px" height="24px" viewBox="0 0 24 24" version="1.1">
  <g id="surface1">
    <path fill="currentColor" d="M 10.8125 23.921875 C 8.964844 23.746094 7.089844 23.082031 5.480469 22.035156 C 4.132812 21.160156 3.828125 20.796875 3.828125 20.078125 C 3.828125 18.632812 5.421875 16.097656 8.148438 13.210938 C 9.699219 11.570312 11.855469 9.648438 12.089844 9.703125 C 12.542969 9.804688 16.171875 13.332031 17.527344 14.992188 C 19.675781 17.617188 20.664062 19.769531 20.160156 20.726562 C 19.78125 21.457031 17.414062 22.882812 15.675781 23.429688 C 14.246094 23.878906 12.363281 24.070312 10.8125 23.921875 Z M 2.003906 18.574219 C 0.886719 16.859375 0.320312 15.171875 0.046875 12.730469 C -0.0429688 11.925781 -0.0117188 11.460938 0.25 9.808594 C 0.578125 7.746094 1.753906 5.359375 3.171875 3.890625 C 3.773438 3.265625 3.828125 3.25 4.5625 3.496094 C 5.453125 3.796875 6.40625 4.453125 7.882812 5.785156 L 8.746094 6.5625 L 8.277344 7.140625 C 6.089844 9.816406 3.785156 13.613281 2.914062 15.960938 C 2.441406 17.238281 2.25 18.519531 2.453125 19.050781 C 2.589844 19.414062 2.464844 19.277344 2.003906 18.574219 Z M 21.675781 18.867188 C 21.789062 18.328125 21.648438 17.335938 21.320312 16.339844 C 20.609375 14.175781 18.234375 10.152344 16.050781 7.417969 L 15.367188 6.558594 L 16.109375 5.878906 C 17.078125 4.988281 17.753906 4.457031 18.480469 4.003906 C 19.050781 3.648438 19.871094 3.332031 20.222656 3.332031 C 20.441406 3.332031 21.207031 4.125 21.824219 4.988281 C 22.777344 6.324219 23.480469 7.949219 23.839844 9.636719 C 24.070312 10.726562 24.089844 13.058594 23.875 14.148438 C 23.703125 15.042969 23.332031 16.199219 22.976562 16.984375 C 22.707031 17.574219 22.035156 18.714844 21.742188 19.089844 C 21.59375 19.277344 21.59375 19.277344 21.675781 18.867188 Z M 11.011719 2.925781 C 10.003906 2.414062 8.453125 1.867188 7.59375 1.722656 C 7.292969 1.667969 6.78125 1.640625 6.457031 1.65625 C 5.746094 1.691406 5.777344 1.65625 6.914062 1.121094 C 7.859375 0.675781 8.644531 0.414062 9.714844 0.191406 C 10.917969 -0.0625 13.175781 -0.0625 14.359375 0.183594 C 15.636719 0.453125 17.144531 1.011719 17.992188 1.53125 L 18.242188 1.6875 L 17.664062 1.65625 C 16.515625 1.601562 14.839844 2.0625 13.042969 2.933594 C 12.5 3.199219 12.027344 3.410156 11.996094 3.402344 C 11.960938 3.394531 11.519531 3.179688 11.011719 2.925781 Z M 11.011719 2.925781 "/>
  </g>
</svg>
